<svg width="500" height="500" viewBox="0 0 500 500" fill="none" xmlns="http://www.w3.org/2000/svg">
<g clip-path="url(#clip0_1_2)">
<rect width="500" height="500" rx="84" fill="#223252"/>
<path d="M123.439 415C116.773 415 111.939 413.5 108.939 410.5C106.273 407.5 104.939 403 104.939 397V93.5C104.939 87.1666 106.273 82.5 108.939 79.5C111.939 76.5 116.939 75 123.939 75H146.939C151.606 75 155.273 75.6667 157.939 77C160.606 78.3333 163.273 81 165.939 85L330.939 314V93.5C330.939 87.1666 332.273 82.5 334.939 79.5C337.939 76.5 342.773 75 349.439 75H375.939C382.606 75 387.439 76.5 390.439 79.5C393.439 82.5 394.939 87.1666 394.939 93.5V397C394.939 403 393.439 407.5 390.439 410.5C387.773 413.5 382.939 415 375.939 415H352.439C347.773 415 344.273 414.5 341.939 413.5C339.606 412.167 336.939 409.5 333.939 405.5L168.939 177V397C168.939 403 167.439 407.5 164.439 410.5C161.773 413.5 156.939 415 149.939 415H123.439Z" fill="white"/>
</g>
<defs>
<clipPath id="clip0_1_2">
<rect width="500" height="500" fill="white"/>
</clipPath>
</defs>
</svg>
